<?xml version="1.0" standalone="no"?>
<!DOCTYPE svg PUBLIC "-//W3C//DTD SVG 20010904//EN"
 "http://www.w3.org/TR/2001/REC-SVG-20010904/DTD/svg10.dtd">
<svg version="1.0" xmlns="http://www.w3.org/2000/svg"
 width="800.000000pt" height="800.000000pt" viewBox="0 0 800.000000 800.000000"
 preserveAspectRatio="xMidYMid meet">

<g transform="translate(0.000000,800.000000) scale(0.100000,-0.100000)"
fill="#000000" stroke="none">
<path d="M3770 7309 c-1109 -77 -2105 -706 -2659 -1679 -307 -540 -461 -1202
-422 -1815 7 -101 21 -239 31 -307 109 -710 434 -1353 937 -1854 1119 -1116
2857 -1289 4176 -417 780 515 1304 1338 1447 2271 125 811 -70 1668 -534 2352
-663 977 -1801 1531 -2976 1449z m404 -715 c75 -6 93 -10 113 -30 13 -13 23
-34 23 -47 0 -19 15 -31 85 -67 225 -113 382 -355 412 -632 5 -49 9 -57 29
-62 31 -8 58 -50 52 -81 -4 -20 5 -34 53 -75 33 -28 59 -56 59 -61 0 -5 -16
-9 -36 -9 l-36 0 70 -74 c85 -92 183 -233 228 -330 45 -98 80 -237 105 -420
l22 -151 67 -125 c169 -314 260 -557 260 -694 -1 -144 -71 -305 -181 -415 -65
-65 -69 -71 -69 -115 0 -122 -67 -624 -89 -664 -5 -8 -19 5 -44 40 l-37 53 0
-65 c0 -139 -44 -494 -69 -561 -6 -18 -8 -18 -41 6 -32 24 -35 24 -42 8 -4
-10 -21 -107 -38 -217 -18 -109 -40 -218 -51 -242 -28 -66 -104 -137 -175
-164 -144 -54 -315 10 -387 145 -11 22 -44 130 -73 240 -44 173 -54 200 -70
199 -10 -1 -59 -9 -108 -18 -112 -20 -190 -20 -302 0 -49 9 -98 17 -108 18
-17 1 -26 -23 -67 -184 -63 -241 -73 -265 -134 -326 -119 -119 -302 -125 -428
-13 -73 64 -93 116 -127 344 -17 110 -34 208 -38 218 -7 16 -10 16 -42 -8 -25
-19 -36 -22 -41 -13 -23 42 -68 404 -69 552 l0 80 -39 -53 c-22 -29 -41 -48
-44 -44 -15 25 -64 363 -83 573 l-7 75 -79 59 c-234 173 -330 434 -249 676 48
142 164 350 323 577 54 78 58 88 73 180 42 264 128 462 299 688 33 44 78 99
100 123 l39 42 -42 0 c-22 0 -41 2 -41 5 0 8 65 65 115 100 39 28 41 33 29 50
-18 24 -19 135 -1 158 6 10 24 21 40 25 24 6 31 19 65 118 51 149 107 241 206
340 88 87 191 147 306 180 43 12 60 21 60 34 0 17 34 53 60 63 8 3 35 4 60 2
25 -3 85 -7 134 -11z"/>
<path d="M4250 5986 c0 -2 8 -10 18 -17 15 -13 16 -12 3 4 -13 16 -21 21 -21
13z"/>
<path d="M3759 5893 c-13 -16 -12 -17 4 -4 9 7 17 15 17 17 0 8 -8 3 -21 -13z"/>
<path d="M3705 5605 c18 -126 73 -217 164 -272 181 -108 405 -39 492 153 36
79 38 105 3 44 -14 -25 -44 -64 -67 -87 -23 -24 -37 -43 -33 -43 5 0 3 -7 -4
-15 -7 -8 -17 -15 -23 -15 -6 0 -2 7 9 15 28 21 13 18 -50 -11 -76 -35 -156
-41 -231 -19 -33 9 -68 23 -79 31 -28 19 -41 18 -25 -3 13 -16 12 -17 -3 -4
-10 7 -16 17 -13 21 2 3 -14 24 -36 46 -43 41 -73 92 -96 159 l-13 40 5 -40z
m85 -160 c42 -48 42 -48 6 -15 -21 19 -42 44 -48 55 -6 11 -9 18 -6 15 2 -3
24 -27 48 -55z m550 12 c0 -2 -15 -16 -32 -33 l-33 -29 29 33 c28 30 36 37 36
29z m-410 -107 c8 -5 11 -10 5 -10 -5 0 -17 5 -25 10 -8 5 -10 10 -5 10 6 0
17 -5 25 -10z m270 0 c-8 -5 -19 -10 -25 -10 -5 0 -3 5 5 10 8 5 20 10 25 10
6 0 3 -5 -5 -10z"/>
<path d="M3310 5586 c0 -2 8 -10 18 -17 15 -13 16 -12 3 4 -13 16 -21 21 -21
13z"/>
<path d="M4715 5430 c-66 -66 -117 -120 -115 -120 3 0 59 54 125 120 66 66
117 120 115 120 -3 0 -59 -54 -125 -120z"/>
<path d="M3430 5425 c13 -14 26 -25 28 -25 3 0 -5 11 -18 25 -13 14 -26 25
-28 25 -3 0 5 -11 18 -25z"/>
<path d="M3510 5345 c13 -14 26 -25 28 -25 3 0 -5 11 -18 25 -13 14 -26 25
-28 25 -3 0 5 -11 18 -25z"/>
<path d="M4569 5293 c-13 -16 -12 -17 4 -4 16 13 21 21 13 21 -2 0 -10 -8 -17
-17z"/>
<path d="M3404 4985 c-12 -8 -27 -28 -34 -45 -16 -39 1 -85 41 -105 40 -21 63
-19 98 11 83 70 -17 201 -105 139z"/>
<path d="M4607 4989 c-11 -6 -25 -27 -33 -45 -13 -31 -13 -39 1 -68 28 -59 85
-71 134 -30 62 52 28 154 -51 154 -18 0 -41 -5 -51 -11z"/>
<path d="M3348 4629 c-32 -18 -22 -56 25 -90 63 -46 222 -123 313 -152 268
-85 564 -81 816 9 91 33 230 102 286 143 47 35 56 73 22 91 -17 9 -36 2 -117
-44 -278 -159 -545 -207 -839 -151 -138 26 -322 102 -431 176 -46 32 -50 33
-75 18z"/>
</g>
</svg>
